<svg width="80" height="80" viewBox="0 0 80 80" fill="none" xmlns="http://www.w3.org/2000/svg">
<path d="M13.4471 33.884V26.2H17.3231V14.64H27.5231V56.732C27.5231 57.956 27.8064 58.8287 28.3731 59.35C28.9624 59.8713 30.1524 60.132 31.9431 60.132C32.4644 60.132 32.9744 60.1207 33.4731 60.098C33.9944 60.0753 34.5724 60.064 35.2071 60.064V67.34C34.7311 67.476 34.2211 67.5667 33.6771 67.612C33.1331 67.6573 32.5551 67.68 31.9431 67.68C26.7524 67.68 23.0124 66.7393 20.7231 64.858C18.4564 62.9767 17.3231 59.8827 17.3231 55.576V33.884H13.4471ZM30.8551 33.884V26.2H34.5271V33.884H30.8551ZM38.7372 67V41.704H48.5292L51.5892 33.068L55.1252 26.2H65.6652L48.4612 57.48V67H38.7372ZM38.7372 39.392V12.6H48.2572V22.936L47.2372 39.392H38.7372ZM52.3372 55.508L58.5932 44.696L67.0252 67H56.6212L52.3372 55.508Z" fill="#45BCFF"/>
</svg>
